<?xml version="1.0" encoding="utf-8"?>
<!-- Generator: Adobe Illustrator 19.0.1, SVG Export Plug-In . SVG Version: 6.00 Build 0)  -->
<svg version="1.1" id="Слой_1" xmlns="http://www.w3.org/2000/svg" xmlns:xlink="http://www.w3.org/1999/xlink" x="0px" y="0px"
	 viewBox="0 0 16 16" style="enable-background:new 0 0 16 16;" xml:space="preserve">
<style type="text/css">
	.st0{fill:#2B71D6;}
</style>
<g>
	<path class="st0" d="M4.3,9.4c0,0-1.9,1.5-0.2,3.3c1.7,1.7,3.3-0.2,3.3-0.2L14.9,5c0,0,1.7-1.9-0.3-4s-4-0.3-4-0.3L1.9,9.4
		c0,0-2.4,2.6,0.3,5.3C4.8,17.4,7.4,15,7.4,15l6.3-6.3c0,0,0.6-0.5,0.2-1c-0.5-0.5-1,0.2-1,0.2l-5.5,5.5c0,0-2.3,2.7-4.5,0.6
		s0.5-4.5,0.5-4.5l7.3-7.3c0,0,1.5-1.7,2.9-0.3c1.4,1.4-0.2,2.9-0.2,2.9L7,11.3c0,0-1.1,1.5-2,0.6c-0.9-0.9,0.6-2,0.6-2l4.9-4.9
		c0,0,0.6-0.5,0.1-1s-1,0.2-1,0.2L4.3,9.4z"/>
</g>
</svg>
